<svg version="1.1" id="Layer_1" xmlns="http://www.w3.org/2000/svg" xmlns:xlink="http://www.w3.org/1999/xlink" x="0px" y="0px" width="100%" viewBox="0 0 356 401" enable-background="new 0 0 356 401" xml:space="preserve">

<path fill="#001E46" opacity="1.000000" stroke="none" d="
M264.846313,228.062164 
	C263.977325,229.983017 262.803070,231.825165 262.284393,233.836365 
	C251.457138,275.819580 225.695465,305.231354 186.565414,323.030243 
	C172.553757,329.403625 157.594040,332.314545 142.088272,333.194061 
	C118.233223,334.547150 95.603722,330.250549 74.625900,319.158356 
	C34.336292,297.854889 10.437581,264.230103 4.347378,219.138977 
	C-0.832320,180.789139 9.598186,146.315338 34.804382,116.612061 
	C56.442646,91.113281 83.975021,76.062408 117.023186,72.002510 
	C163.633423,66.276512 203.090378,81.079704 234.376373,116.134850 
	C247.824203,131.202789 256.977295,148.951447 261.973358,168.684784 
	C262.490295,170.726578 263.463928,172.652740 264.594666,175.254501 
	C264.924591,193.271683 264.885437,210.666931 264.846313,228.062164 
M130.808365,244.970734 
	C131.807236,244.979797 132.806091,244.995590 133.804977,244.996918 
	C153.297104,245.022858 169.724731,233.410736 175.624420,215.438065 
	C181.402847,197.834839 175.070374,178.669525 159.704498,167.256149 
	C145.529221,156.727127 126.295914,155.939316 111.554886,166.089493 
	C94.685120,177.705444 89.314423,192.414658 92.690170,210.981308 
	C96.024345,229.319321 110.365509,241.720352 130.808365,244.970734 
z" data-index="1" style="opacity: 1;"></path>
<path fill="#006BFF" opacity="1.000000" stroke="none" d="
M264.911438,228.522903 
	C264.885437,210.666931 264.924591,193.271683 264.905029,175.407074 
	C264.897552,142.447815 264.948975,109.957916 264.999634,77.468025 
	C265.002686,75.501312 265.000000,73.534584 265.000000,71.286041 
	C295.085358,71.286041 324.802887,71.286041 354.760498,71.286041 
	C354.760498,158.718735 354.760498,245.976410 354.760498,333.617126 
	C325.110962,333.617126 295.392578,333.617126 264.976532,333.617126 
	C264.976532,298.818695 264.976532,263.901184 264.911438,228.522903 
z" data-index="2"></path>

</svg>