<svg version="1.1" id="Layer_1" xmlns="http://www.w3.org/2000/svg" xmlns:xlink="http://www.w3.org/1999/xlink" x="0px" y="0px"
	 width="100%" viewBox="0 0 1016 816" enable-background="new 0 0 1016 816" xml:space="preserve">
<path fill="#FFFFFF" opacity="1.000000" stroke="none" 
	d="
M700.000000,817.000000 
	C466.666656,817.000000 233.833328,817.000000 1.000000,817.000000 
	C1.000000,545.000000 1.000000,273.000000 1.000000,1.000000 
	C339.666656,1.000000 678.333313,1.000000 1017.000000,1.000000 
	C1017.000000,273.000000 1017.000000,545.000000 1017.000000,817.000000 
	C911.500000,817.000000 806.000000,817.000000 700.000000,817.000000 
M645.975586,324.945068 
	C645.975586,386.855072 645.975586,448.765076 645.975586,510.686768 
	C692.627930,510.686768 738.674194,510.686768 784.703247,510.686768 
	C784.703247,371.686951 784.703247,233.000656 784.703247,94.320038 
	C738.359497,94.320038 692.313232,94.320038 646.000000,94.320038 
	C646.000000,96.445702 646.000000,98.258392 646.000000,100.071083 
	C646.000000,149.884277 646.009460,199.697464 645.992432,249.510666 
	C645.988708,260.335938 645.890198,271.161224 645.321350,281.376923 
	C643.035706,256.136597 636.002991,232.175171 624.697510,209.611862 
	C612.779358,185.825745 596.964478,164.916718 576.864380,147.207260 
	C559.750427,132.128860 540.916565,120.042740 520.026672,110.979530 
	C493.307098,99.387093 465.275665,94.019508 436.322479,94.207726 
	C424.157837,94.286819 411.945496,96.234512 399.865570,98.063995 
	C379.847229,101.095741 360.892914,107.853004 343.005249,117.145615 
	C324.529266,126.743835 307.720215,138.754013 292.777710,153.503632 
	C277.519257,168.565063 264.582611,185.209824 254.497894,204.065140 
	C241.275970,228.786102 233.296234,255.041351 230.838562,283.082031 
	C229.277298,300.895203 229.498489,318.611847 232.328384,336.162872 
	C236.566315,362.446533 245.652740,387.082031 259.437836,409.970428 
	C271.630371,430.214600 286.598358,448.080963 304.785828,463.110229 
	C318.911835,474.783295 334.494659,484.239899 351.094513,492.112213 
	C375.115601,503.503998 400.548889,509.333862 426.856781,510.762726 
	C439.862030,511.469116 453.045898,510.154694 466.071747,508.932190 
	C488.442505,506.832611 509.579834,499.902008 529.637085,490.054443 
	C557.745544,476.253967 581.648560,457.079437 601.171875,432.432220 
	C619.599609,409.168091 632.760376,383.333405 639.953003,354.575562 
	C642.465454,344.530090 643.897644,334.214417 645.975586,324.945068 
M615.500000,689.000000 
	C626.660461,688.999817 637.821594,688.936829 648.981018,689.044067 
	C651.724365,689.070496 653.684082,688.347412 653.890259,685.430786 
	C654.630066,674.964600 652.841675,664.953735 645.486023,657.136780 
	C629.690430,640.350586 604.278992,640.572876 588.306763,657.194397 
	C574.792053,671.258484 574.797791,697.583984 588.663025,711.079895 
	C603.044922,725.078613 620.557434,726.778931 638.568848,720.990601 
	C653.036621,716.341003 650.538025,719.225464 647.867371,705.322021 
	C647.823181,705.091980 647.432861,704.928406 647.051880,704.604370 
	C646.064758,705.056580 645.028564,705.557983 643.971680,706.011292 
	C632.536743,710.916626 620.849854,713.100037 608.665100,709.028259 
	C599.873535,706.090393 593.155640,697.511230 593.067810,689.000000 
	C600.211426,689.000000 607.355713,689.000000 615.500000,689.000000 
M782.541565,713.924194 
	C775.857239,704.655212 769.350891,695.249084 762.377808,686.202698 
	C760.344849,683.565247 760.860413,682.165283 762.441772,679.844666 
	C768.983521,670.244568 775.338135,660.516663 781.723450,650.810669 
	C782.566223,649.529541 783.189941,648.104309 784.313293,646.000000 
	C780.978760,646.000000 778.637146,646.252197 776.370239,645.947632 
	C771.617554,645.309021 768.649719,647.220886 766.280640,651.321533 
	C762.799072,657.347717 758.319275,662.829651 755.164612,669.003235 
	C751.834290,675.520752 747.303223,677.807922 740.102051,677.196228 
	C735.885132,676.838074 734.872314,675.671997 734.918823,671.665283 
	C735.115967,654.678833 735.063049,637.688477 734.979431,620.700134 
	C734.930237,610.705627 736.472595,612.316528 726.258850,611.918762 
	C722.128967,611.757996 720.886780,612.999573 720.909302,617.196960 
	C721.076782,648.342102 721.000061,679.488586 721.000000,710.634644 
	C721.000000,722.646790 721.000305,722.651550 733.075439,721.913147 
	C733.535645,721.885010 733.979614,721.591003 734.761536,721.296387 
	C734.840088,719.726135 734.986206,718.104675 734.991394,716.482788 
	C735.016235,708.654785 734.937317,700.825439 735.069519,692.999512 
	C735.091187,691.720642 735.629639,689.769836 736.535217,689.301575 
	C741.043823,686.970337 749.625000,689.777161 752.693054,694.077026 
	C758.080566,701.627502 763.526855,709.138123 769.069946,716.574890 
	C773.322693,722.280273 780.592407,723.887268 787.836609,720.797974 
	C786.206604,718.664917 784.606262,716.570679 782.541565,713.924194 
M241.071655,649.410034 
	C240.079926,650.207703 238.183182,651.088257 238.247437,651.789124 
	C238.592697,655.555542 239.425720,659.277283 239.945282,662.198792 
	C247.593765,660.372253 254.539948,657.813110 261.652710,657.206116 
	C275.581635,656.017517 288.446716,662.593811 285.451477,679.943909 
	C284.678955,679.943909 283.828461,680.110046 283.067841,679.918762 
	C272.699341,677.311401 262.278137,677.014587 252.014694,680.054321 
	C236.647995,684.605591 230.931458,694.875244 235.088654,709.474487 
	C237.530823,718.050903 247.885254,723.875793 259.676056,723.970215 
	C269.696655,724.050415 278.203949,720.071716 286.157104,712.722351 
	C286.157104,716.323853 286.157104,719.041504 286.157104,721.644470 
	C290.695984,721.644470 294.752808,721.644470 298.999176,721.644470 
	C298.999176,704.151367 299.240601,687.007996 298.880280,669.877258 
	C298.736267,663.032288 295.674713,656.758728 290.458588,652.281677 
	C284.051605,646.782532 276.135651,645.216980 267.745453,644.893921 
	C258.739655,644.547180 250.196289,646.124756 241.071655,649.410034 
M510.211212,723.954346 
	C513.450806,723.352478 516.816711,723.098694 519.872009,721.989258 
	C521.222595,721.498840 522.717773,719.305542 522.777222,717.830078 
	C522.878174,715.325195 521.893921,712.776550 521.304565,709.953125 
	C517.918945,710.532166 514.860291,711.086060 511.791138,711.573975 
	C504.306732,712.763977 495.909515,708.356812 495.977234,699.465149 
	C496.072296,686.984436 496.070618,674.501770 495.950684,662.021484 
	C495.922028,659.039185 496.819733,657.798828 499.929749,657.951172 
	C504.080231,658.154419 508.248230,658.000366 512.408691,657.999939 
	C520.257019,657.999207 520.089233,657.999573 520.078003,650.155151 
	C520.073181,646.811035 518.898682,645.824280 515.706421,645.945801 
	C510.388794,646.148193 505.054810,645.894592 499.733490,646.041199 
	C496.932587,646.118347 495.848999,645.100220 495.961426,642.282043 
	C496.120514,638.294312 496.057434,634.294556 495.988617,630.301636 
	C495.829071,621.045593 497.647003,622.228333 487.368134,621.930298 
	C483.723389,621.824585 482.766083,623.231140 482.946869,626.583435 
	C483.170593,630.731873 483.000885,634.901550 482.999817,639.062012 
	C482.998016,645.995239 482.997589,645.995239 475.999390,646.000000 
	C468.934418,646.004822 469.130890,646.010742 468.922333,652.937927 
	C468.807861,656.740540 469.768097,658.641724 473.889679,658.034546 
	C475.355621,657.818542 476.902466,658.166077 478.373566,657.968018 
	C482.248962,657.446167 483.122223,659.222168 483.073212,662.824646 
	C482.889832,676.302124 483.008301,689.783569 482.996002,703.263550 
	C482.990906,708.867493 484.946167,713.628418 489.006592,717.505188 
	C494.721313,722.961670 501.939423,723.722412 510.211212,723.954346 
M383.997223,648.535095 
	C383.474884,647.700989 382.992554,646.177429 382.423798,646.144409 
	C378.686707,645.927795 374.930969,646.032715 371.366882,646.032715 
	C371.366882,671.756287 371.366882,696.797668 371.366882,721.771729 
	C375.677399,721.771729 379.618958,721.771729 383.855713,721.771729 
	C383.910858,720.771301 383.976776,719.979492 383.994965,719.186707 
	C384.333466,704.442810 384.570496,689.695740 385.037598,674.955994 
	C385.301483,666.629089 391.999542,658.984802 399.997864,658.084656 
	C404.480743,657.580139 409.067017,657.993835 413.700256,657.993835 
	C413.985016,656.833069 414.427765,655.111511 414.828369,653.380188 
	C416.108307,647.848633 414.311462,645.539490 408.597321,644.983765 
	C398.596619,644.011353 390.216156,646.727722 383.999603,656.427551 
	C383.999603,653.333923 383.999603,651.384705 383.997223,648.535095 
z"/>
<path fill="#EEEEEE" opacity="1.000000" stroke="none" 
	d="
M645.823120,324.022156 
	C643.897644,334.214417 642.465454,344.530090 639.953003,354.575562 
	C632.760376,383.333405 619.599609,409.168091 601.171875,432.432220 
	C581.648560,457.079437 557.745544,476.253967 529.637085,490.054443 
	C509.579834,499.902008 488.442505,506.832611 466.071747,508.932190 
	C453.045898,510.154694 439.862030,511.469116 426.856781,510.762726 
	C400.548889,509.333862 375.115601,503.503998 351.094513,492.112213 
	C334.494659,484.239899 318.911835,474.783295 304.785828,463.110229 
	C286.598358,448.080963 271.630371,430.214600 259.437836,409.970428 
	C245.652740,387.082031 236.566315,362.446533 232.328384,336.162872 
	C229.498489,318.611847 229.277298,300.895203 230.838562,283.082031 
	C233.296234,255.041351 241.275970,228.786102 254.497894,204.065140 
	C264.582611,185.209824 277.519257,168.565063 292.777710,153.503632 
	C307.720215,138.754013 324.529266,126.743835 343.005249,117.145615 
	C360.892914,107.853004 379.847229,101.095741 399.865570,98.063995 
	C411.945496,96.234512 424.157837,94.286819 436.322479,94.207726 
	C465.275665,94.019508 493.307098,99.387093 520.026672,110.979530 
	C540.916565,120.042740 559.750427,132.128860 576.864380,147.207260 
	C596.964478,164.916718 612.779358,185.825745 624.697510,209.611862 
	C636.002991,232.175171 643.035706,256.136597 645.648315,282.146606 
	C645.924561,296.618256 645.873840,310.320221 645.823120,324.022156 
M471.032959,242.437683 
	C470.202209,241.891846 469.431427,241.205948 468.531952,240.820511 
	C442.447998,229.643204 417.978210,231.555222 395.080353,249.257950 
	C374.143005,265.445007 364.561096,294.519623 371.491180,320.040436 
	C379.821136,350.716522 409.011047,373.992401 443.030762,371.096344 
	C461.653015,369.511078 477.007324,362.153900 489.365936,348.181244 
	C503.518799,332.180023 509.336029,313.758179 506.010071,292.575928 
	C502.542664,270.492737 490.998718,253.966492 471.032959,242.437683 
z"/>
<path fill="#0077FF" opacity="1.000000" stroke="none" 
	d="
M645.899353,324.483612 
	C645.873840,310.320221 645.924561,296.618256 645.905273,282.451416 
	C645.890198,271.161224 645.988708,260.335938 645.992432,249.510666 
	C646.009460,199.697464 646.000000,149.884277 646.000000,100.071083 
	C646.000000,98.258392 646.000000,96.445702 646.000000,94.320038 
	C692.313232,94.320038 738.359497,94.320038 784.703247,94.320038 
	C784.703247,233.000656 784.703247,371.686951 784.703247,510.686768 
	C738.674194,510.686768 692.627930,510.686768 645.975586,510.686768 
	C645.975586,448.765076 645.975586,386.855072 645.899353,324.483612 
z"/>
<path fill="#EEEEEE" opacity="1.000000" stroke="none" 
	d="
M615.000000,689.000000 
	C607.355713,689.000000 600.211426,689.000000 593.067810,689.000000 
	C593.155640,697.511230 599.873535,706.090393 608.665100,709.028259 
	C620.849854,713.100037 632.536743,710.916626 643.971680,706.011292 
	C645.028564,705.557983 646.064758,705.056580 647.051880,704.604370 
	C647.432861,704.928406 647.823181,705.091980 647.867371,705.322021 
	C650.538025,719.225464 653.036621,716.341003 638.568848,720.990601 
	C620.557434,726.778931 603.044922,725.078613 588.663025,711.079895 
	C574.797791,697.583984 574.792053,671.258484 588.306763,657.194397 
	C604.278992,640.572876 629.690430,640.350586 645.486023,657.136780 
	C652.841675,664.953735 654.630066,674.964600 653.890259,685.430786 
	C653.684082,688.347412 651.724365,689.070496 648.981018,689.044067 
	C637.821594,688.936829 626.660461,688.999817 615.000000,689.000000 
M615.745789,657.006104 
	C601.265808,659.757324 593.135315,667.168274 593.488037,677.468689 
	C609.215576,677.468689 624.943542,677.468689 640.685547,677.468689 
	C640.204285,665.899841 630.311279,656.769592 615.745789,657.006104 
z"/>
<path fill="#EEEEEE" opacity="1.000000" stroke="none" 
	d="
M782.773804,714.200317 
	C784.606262,716.570679 786.206604,718.664917 787.836609,720.797974 
	C780.592407,723.887268 773.322693,722.280273 769.069946,716.574890 
	C763.526855,709.138123 758.080566,701.627502 752.693054,694.077026 
	C749.625000,689.777161 741.043823,686.970337 736.535217,689.301575 
	C735.629639,689.769836 735.091187,691.720642 735.069519,692.999512 
	C734.937317,700.825439 735.016235,708.654785 734.991394,716.482788 
	C734.986206,718.104675 734.840088,719.726135 734.761536,721.296387 
	C733.979614,721.591003 733.535645,721.885010 733.075439,721.913147 
	C721.000305,722.651550 721.000000,722.646790 721.000000,710.634644 
	C721.000061,679.488586 721.076782,648.342102 720.909302,617.196960 
	C720.886780,612.999573 722.128967,611.757996 726.258850,611.918762 
	C736.472595,612.316528 734.930237,610.705627 734.979431,620.700134 
	C735.063049,637.688477 735.115967,654.678833 734.918823,671.665283 
	C734.872314,675.671997 735.885132,676.838074 740.102051,677.196228 
	C747.303223,677.807922 751.834290,675.520752 755.164612,669.003235 
	C758.319275,662.829651 762.799072,657.347717 766.280640,651.321533 
	C768.649719,647.220886 771.617554,645.309021 776.370239,645.947632 
	C778.637146,646.252197 780.978760,646.000000 784.313293,646.000000 
	C783.189941,648.104309 782.566223,649.529541 781.723450,650.810669 
	C775.338135,660.516663 768.983521,670.244568 762.441772,679.844666 
	C760.860413,682.165283 760.344849,683.565247 762.377808,686.202698 
	C769.350891,695.249084 775.857239,704.655212 782.773804,714.200317 
z"/>
<path fill="#0077FF" opacity="1.000000" stroke="none" 
	d="
M241.431976,649.229492 
	C250.196289,646.124756 258.739655,644.547180 267.745453,644.893921 
	C276.135651,645.216980 284.051605,646.782532 290.458588,652.281677 
	C295.674713,656.758728 298.736267,663.032288 298.880280,669.877258 
	C299.240601,687.007996 298.999176,704.151367 298.999176,721.644470 
	C294.752808,721.644470 290.695984,721.644470 286.157104,721.644470 
	C286.157104,719.041504 286.157104,716.323853 286.157104,712.722351 
	C278.203949,720.071716 269.696655,724.050415 259.676056,723.970215 
	C247.885254,723.875793 237.530823,718.050903 235.088654,709.474487 
	C230.931458,694.875244 236.647995,684.605591 252.014694,680.054321 
	C262.278137,677.014587 272.699341,677.311401 283.067841,679.918762 
	C283.828461,680.110046 284.678955,679.943909 285.451477,679.943909 
	C288.446716,662.593811 275.581635,656.017517 261.652710,657.206116 
	C254.539948,657.813110 247.593765,660.372253 239.945282,662.198792 
	C239.425720,659.277283 238.592697,655.555542 238.247437,651.789124 
	C238.183182,651.088257 240.079926,650.207703 241.431976,649.229492 
M269.401886,687.999939 
	C265.656158,688.344849 261.800171,688.246399 258.191925,689.144043 
	C253.400269,690.335999 248.732330,692.638245 247.255875,697.783630 
	C246.036713,702.032349 246.906403,706.263794 250.808121,709.349487 
	C257.959015,715.004761 265.577576,713.713013 272.938782,710.424622 
	C280.148712,707.203857 285.058563,701.627808 285.862335,693.395996 
	C285.963593,692.358643 284.399872,690.394165 283.309204,690.140076 
	C279.048004,689.147339 274.666870,688.669312 269.401886,687.999939 
z"/>
<path fill="#EEEEEE" opacity="1.000000" stroke="none" 
	d="
M509.762115,723.972778 
	C501.939423,723.722412 494.721313,722.961670 489.006592,717.505188 
	C484.946167,713.628418 482.990906,708.867493 482.996002,703.263550 
	C483.008301,689.783569 482.889832,676.302124 483.073212,662.824646 
	C483.122223,659.222168 482.248962,657.446167 478.373566,657.968018 
	C476.902466,658.166077 475.355621,657.818542 473.889679,658.034546 
	C469.768097,658.641724 468.807861,656.740540 468.922333,652.937927 
	C469.130890,646.010742 468.934418,646.004822 475.999390,646.000000 
	C482.997589,645.995239 482.998016,645.995239 482.999817,639.062012 
	C483.000885,634.901550 483.170593,630.731873 482.946869,626.583435 
	C482.766083,623.231140 483.723389,621.824585 487.368134,621.930298 
	C497.647003,622.228333 495.829071,621.045593 495.988617,630.301636 
	C496.057434,634.294556 496.120514,638.294312 495.961426,642.282043 
	C495.848999,645.100220 496.932587,646.118347 499.733490,646.041199 
	C505.054810,645.894592 510.388794,646.148193 515.706421,645.945801 
	C518.898682,645.824280 520.073181,646.811035 520.078003,650.155151 
	C520.089233,657.999573 520.257019,657.999207 512.408691,657.999939 
	C508.248230,658.000366 504.080231,658.154419 499.929749,657.951172 
	C496.819733,657.798828 495.922028,659.039185 495.950684,662.021484 
	C496.070618,674.501770 496.072296,686.984436 495.977234,699.465149 
	C495.909515,708.356812 504.306732,712.763977 511.791138,711.573975 
	C514.860291,711.086060 517.918945,710.532166 521.304565,709.953125 
	C521.893921,712.776550 522.878174,715.325195 522.777222,717.830078 
	C522.717773,719.305542 521.222595,721.498840 519.872009,721.989258 
	C516.816711,723.098694 513.450806,723.352478 509.762115,723.972778 
z"/>
<path fill="#0077FF" opacity="1.000000" stroke="none" 
	d="
M383.998413,648.985291 
	C383.999603,651.384705 383.999603,653.333923 383.999603,656.427551 
	C390.216156,646.727722 398.596619,644.011353 408.597321,644.983765 
	C414.311462,645.539490 416.108307,647.848633 414.828369,653.380188 
	C414.427765,655.111511 413.985016,656.833069 413.700256,657.993835 
	C409.067017,657.993835 404.480743,657.580139 399.997864,658.084656 
	C391.999542,658.984802 385.301483,666.629089 385.037598,674.955994 
	C384.570496,689.695740 384.333466,704.442810 383.994965,719.186707 
	C383.976776,719.979492 383.910858,720.771301 383.855713,721.771729 
	C379.618958,721.771729 375.677399,721.771729 371.366882,721.771729 
	C371.366882,696.797668 371.366882,671.756287 371.366882,646.032715 
	C374.930969,646.032715 378.686707,645.927795 382.423798,646.144409 
	C382.992554,646.177429 383.474884,647.700989 383.998413,648.985291 
z"/>
<path fill="#FFFFFF" opacity="1.000000" stroke="none" 
	d="
M471.345825,242.636108 
	C490.998718,253.966492 502.542664,270.492737 506.010071,292.575928 
	C509.336029,313.758179 503.518799,332.180023 489.365936,348.181244 
	C477.007324,362.153900 461.653015,369.511078 443.030762,371.096344 
	C409.011047,373.992401 379.821136,350.716522 371.491180,320.040436 
	C364.561096,294.519623 374.143005,265.445007 395.080353,249.257950 
	C417.978210,231.555222 442.447998,229.643204 468.531952,240.820511 
	C469.431427,241.205948 470.202209,241.891846 471.345825,242.636108 
z"/>
<path fill="#FFFFFF" opacity="1.000000" stroke="none" 
	d="
M616.185059,657.003418 
	C630.311279,656.769592 640.204285,665.899841 640.685547,677.468689 
	C624.943542,677.468689 609.215576,677.468689 593.488037,677.468689 
	C593.135315,667.168274 601.265808,659.757324 616.185059,657.003418 
z"/>
<path fill="#FFFFFF" opacity="1.000000" stroke="none" 
	d="
M269.866089,688.000000 
	C274.666870,688.669312 279.048004,689.147339 283.309204,690.140076 
	C284.399872,690.394165 285.963593,692.358643 285.862335,693.395996 
	C285.058563,701.627808 280.148712,707.203857 272.938782,710.424622 
	C265.577576,713.713013 257.959015,715.004761 250.808121,709.349487 
	C246.906403,706.263794 246.036713,702.032349 247.255875,697.783630 
	C248.732330,692.638245 253.400269,690.335999 258.191925,689.144043 
	C261.800171,688.246399 265.656158,688.344849 269.866089,688.000000 
z"/>
</svg>