<?xml version="1.0" encoding="UTF-8"?>
<svg xmlns="http://www.w3.org/2000/svg" id="Layer_1" data-name="Layer 1" version="1.1" viewBox="0 0 100 100">
  <defs>
    <style>
      .cls-1 {
        fill: #fff;
      }

      .cls-1, .cls-2 {
        stroke-width: 0px;
      }

      .cls-2 {
        fill: #e51a2b;
      }
    </style>
  </defs>
  <circle class="cls-1" cx="50" cy="51.1" r="39.36" transform="translate(-19.4 33.92) rotate(-31.72)"></circle>
  <path class="cls-2" d="M76.72,71.51l-8.08-8.07c3.59-4.96,4.98-11.03,4.12-16.84l-7.13,7.12-7.09-7.08,18.18-18.16c10.12,12.52,10.12,30.51,0,43.03M28.46,76.69l8.07-8.06c8.01,5.79,18.92,5.78,26.94,0l8.07,8.07c-12.54,10.1-30.54,10.11-43.08,0M23.28,28.48l8.07,8.07c-5.79,8-5.78,18.89,0,26.89l-8.08,8.08c-10.12-12.52-10.11-30.51,0-43.03M71.54,23.3l-8.09,8.07c-8.01-5.78-18.9-5.78-26.91,0l-8.08-8.06c12.54-10.1,30.54-10.1,43.08,0M85.06,14.98c-19.36-19.34-50.76-19.35-70.13,0-19.36,19.34-19.36,50.71,0,70.05,19.37,19.34,50.76,19.34,70.12,0,19.37-19.35,19.37-50.71,0-70.05"></path>
</svg>
